<svg xmlns="http://www.w3.org/2000/svg" width="184" height="62" viewBox="0 0 184 62" fill="none">
  <rect y="0.324219" width="183.973" height="61.3244" rx="12.2649" fill="black"/>
  <path d="M37.975 31.4472C37.9914 30.1676 38.3313 28.9129 38.963 27.7999C39.5947 26.687 40.4976 25.7519 41.5878 25.0816C40.8953 24.0925 39.9816 23.2785 38.9194 22.7043C37.8573 22.1301 36.6758 21.8114 35.4689 21.7737C32.8945 21.5034 30.3987 23.3142 29.0868 23.3142C27.7495 23.3142 25.7296 21.8005 23.5545 21.8453C22.1476 21.8907 20.7765 22.2998 19.5747 23.0327C18.373 23.7657 17.3815 24.7974 16.6971 26.0274C13.732 31.1609 15.9437 38.7054 18.7839 42.8549C20.205 44.8868 21.8658 47.1565 24.0389 47.076C26.1654 46.9878 26.9596 45.72 29.5265 45.72C32.0695 45.72 32.8147 47.076 35.0319 47.0248C37.3137 46.9878 38.7514 44.9839 40.1226 42.9328C41.1436 41.485 41.9293 39.8848 42.4505 38.1916C41.1248 37.6309 39.9935 36.6924 39.1976 35.493C38.4017 34.2937 37.9765 32.8866 37.975 31.4472Z" fill="white"/>
  <path d="M33.7871 19.0447C35.0312 17.5511 35.6442 15.6314 35.4958 13.6932C33.595 13.8928 31.8392 14.8013 30.5782 16.2375C29.9617 16.9392 29.4895 17.7555 29.1886 18.6397C28.8877 19.524 28.7641 20.4588 28.8248 21.3909C29.7755 21.4007 30.7161 21.1946 31.5756 20.7882C32.4352 20.3818 33.1913 19.7857 33.7871 19.0447Z" fill="white"/>
  <path d="M64.8542 41.932H57.5974L55.8547 47.0778H52.781L59.6546 28.0396H62.848L69.7216 47.0778H66.5954L64.8542 41.932ZM58.349 39.5575H64.1012L61.2656 31.2062H61.1862L58.349 39.5575Z" fill="white"/>
  <path d="M84.5661 40.1384C84.5661 44.4518 82.2574 47.223 78.7735 47.223C77.891 47.2692 77.0133 47.0659 76.2409 46.6364C75.4685 46.2069 74.8327 45.5686 74.4062 44.7946H74.3403V51.6696H71.4912V33.1975H74.249V35.5061H74.3014C74.7475 34.7358 75.3941 34.1008 76.1723 33.6687C76.9506 33.2366 77.8314 33.0235 78.7211 33.0522C82.2439 33.0522 84.5661 35.837 84.5661 40.1384ZM81.6376 40.1384C81.6376 37.3282 80.1853 35.4807 77.9695 35.4807C75.7926 35.4807 74.3284 37.3671 74.3284 40.1384C74.3284 42.9351 75.7926 44.8081 77.9695 44.8081C80.1853 44.8081 81.6376 42.974 81.6376 40.1384Z" fill="white"/>
  <path d="M99.8433 40.1384C99.8433 44.4518 97.5346 47.223 94.0507 47.223C93.1681 47.2692 92.2904 47.0659 91.5181 46.6364C90.7457 46.2069 90.1099 45.5686 89.6834 44.7946H89.6175V51.6696H86.7684V33.1975H89.5262V35.5061H89.5786C90.0246 34.7358 90.6712 34.1008 91.4494 33.6687C92.2277 33.2366 93.1085 33.0235 93.9982 33.0522C97.5211 33.0522 99.8433 35.837 99.8433 40.1384ZM96.9148 40.1384C96.9148 37.3282 95.4625 35.4807 93.2467 35.4807C91.0698 35.4807 89.6056 37.3671 89.6056 40.1384C89.6056 42.9351 91.0698 44.8081 93.2467 44.8081C95.4625 44.8081 96.9148 42.974 96.9148 40.1384Z" fill="white"/>
  <path d="M109.94 41.7733C110.151 43.6612 111.985 44.9008 114.492 44.9008C116.893 44.9008 118.621 43.6612 118.621 41.9589C118.621 40.4812 117.579 39.5963 115.111 38.99L112.644 38.3956C109.148 37.5512 107.525 35.9163 107.525 33.2633C107.525 29.9785 110.388 27.7222 114.453 27.7222C118.476 27.7222 121.233 29.9785 121.326 33.2633H118.45C118.278 31.3633 116.707 30.2165 114.412 30.2165C112.117 30.2165 110.547 31.3768 110.547 33.0656C110.547 34.4116 111.55 35.2036 114.004 35.8099L116.101 36.3249C120.007 37.2487 121.63 38.8178 121.63 41.6025C121.63 45.1643 118.793 47.3951 114.281 47.3951C110.058 47.3951 107.208 45.2167 107.024 41.7732L109.94 41.7733Z" fill="white"/>
  <path d="M127.779 29.9127V33.1975H130.419V35.4537H127.779V43.1058C127.779 44.2945 128.308 44.8485 129.468 44.8485C129.781 44.843 130.094 44.821 130.405 44.7826V47.0253C129.883 47.1228 129.353 47.167 128.823 47.1571C126.012 47.1571 124.916 46.1016 124.916 43.4097V35.4537H122.898V33.1975H124.916V29.9127H127.779Z" fill="white"/>
  <path d="M131.947 40.1384C131.947 35.7711 134.519 33.0268 138.53 33.0268C142.555 33.0268 145.115 35.7711 145.115 40.1384C145.115 44.5176 142.568 47.25 138.53 47.25C134.494 47.25 131.947 44.5176 131.947 40.1384ZM142.212 40.1384C142.212 37.1425 140.839 35.3744 138.53 35.3744C136.222 35.3744 134.85 37.156 134.85 40.1384C134.85 43.1462 136.222 44.9009 138.53 44.9009C140.839 44.9009 142.212 43.1462 142.212 40.1384Z" fill="white"/>
  <path d="M147.464 33.1975H150.181V35.56H150.247C150.431 34.8221 150.863 34.17 151.471 33.7133C152.079 33.2567 152.826 33.0232 153.586 33.0522C153.914 33.0511 154.242 33.0867 154.562 33.1585V35.8235C154.148 35.6968 153.715 35.6387 153.282 35.6513C152.868 35.6345 152.455 35.7075 152.072 35.8652C151.689 36.023 151.345 36.2617 151.063 36.5651C150.781 36.8685 150.568 37.2293 150.438 37.6229C150.309 38.0164 150.266 38.4332 150.313 38.8448V47.0778H147.464L147.464 33.1975Z" fill="white"/>
  <path d="M167.698 43.001C167.315 45.5207 164.861 47.25 161.722 47.25C157.684 47.25 155.177 44.5446 155.177 40.2042C155.177 35.8505 157.697 33.0268 161.602 33.0268C165.442 33.0268 167.857 35.6648 167.857 39.8734V40.8495H158.054V41.0217C158.008 41.5325 158.072 42.0471 158.241 42.5314C158.41 43.0156 158.68 43.4583 159.033 43.8302C159.386 44.202 159.815 44.4945 160.29 44.6881C160.764 44.8818 161.275 44.9721 161.787 44.9533C162.461 45.0164 163.136 44.8604 163.714 44.5087C164.292 44.1569 164.74 43.6281 164.993 43.001L167.698 43.001ZM158.067 38.8583H165.006C165.032 38.399 164.962 37.9393 164.802 37.5082C164.641 37.0771 164.394 36.6838 164.074 36.353C163.754 36.0222 163.37 35.761 162.944 35.5859C162.519 35.4108 162.062 35.3255 161.602 35.3354C161.138 35.3327 160.678 35.4218 160.249 35.5977C159.819 35.7736 159.429 36.0328 159.1 36.3603C158.772 36.6879 158.511 37.0772 158.334 37.506C158.157 37.9347 158.066 38.3943 158.067 38.8583Z" fill="white"/>
  <path d="M57.9919 13.7095C58.5892 13.6667 59.1886 13.7569 59.7469 13.9737C60.3051 14.1906 60.8082 14.5286 61.22 14.9634C61.6318 15.3982 61.9419 15.919 62.128 16.4882C62.3141 17.0574 62.3716 17.6608 62.2963 18.2549C62.2963 21.1774 60.7168 22.8573 57.9919 22.8573H54.6877V13.7095H57.9919ZM56.1085 21.5636H57.8332C58.26 21.5892 58.6872 21.5192 59.0836 21.3588C59.4799 21.1984 59.8355 20.9517 60.1245 20.6365C60.4135 20.3213 60.6286 19.9457 60.7541 19.537C60.8796 19.1282 60.9124 18.6966 60.85 18.2736C60.9078 17.8522 60.8717 17.4233 60.7443 17.0176C60.6169 16.6118 60.4013 16.2393 60.1129 15.9266C59.8246 15.614 59.4707 15.369 59.0766 15.2091C58.6825 15.0493 58.2579 14.9787 57.8332 15.0023H56.1085V21.5636Z" fill="white"/>
  <path d="M63.9013 19.4025C63.8579 18.9488 63.9098 18.4911 64.0536 18.0586C64.1975 17.6262 64.4302 17.2286 64.7367 16.8913C65.0432 16.5541 65.4169 16.2846 65.8337 16.1002C66.2504 15.9158 66.7011 15.8206 67.1569 15.8206C67.6126 15.8206 68.0634 15.9158 68.4801 16.1002C68.8969 16.2846 69.2705 16.5541 69.5771 16.8913C69.8836 17.2286 70.1163 17.6262 70.2601 18.0586C70.404 18.4911 70.4559 18.9488 70.4125 19.4025C70.4567 19.8566 70.4054 20.315 70.262 20.7481C70.1185 21.1813 69.8859 21.5796 69.5793 21.9175C69.2727 22.2554 68.8988 22.5255 68.4816 22.7103C68.0644 22.8951 67.6132 22.9905 67.1569 22.9905C66.7006 22.9905 66.2494 22.8951 65.8322 22.7103C65.415 22.5255 65.041 22.2554 64.7344 21.9175C64.4278 21.5796 64.1953 21.1813 64.0518 20.7481C63.9083 20.315 63.8571 19.8566 63.9013 19.4025ZM69.0111 19.4025C69.0111 17.9061 68.3389 17.031 67.1591 17.031C65.9749 17.031 65.3087 17.9061 65.3087 19.4025C65.3087 20.9109 65.9749 21.7793 67.1591 21.7793C68.3389 21.7792 69.0111 20.9049 69.0111 19.4025Z" fill="white"/>
  <path d="M79.0677 22.8572H77.6544L76.2276 17.7728H76.1198L74.6989 22.8572H73.2991L71.3962 15.9537H72.7781L74.0147 21.2215H74.1165L75.5359 15.9537H76.8429L78.2622 21.2215H78.37L79.6007 15.9537H80.9631L79.0677 22.8572Z" fill="white"/>
  <path d="M82.5636 15.9537H83.8751V17.0504H83.9769C84.1496 16.6565 84.4409 16.3263 84.8102 16.1059C85.1795 15.8854 85.6084 15.7856 86.037 15.8205C86.3729 15.7952 86.7102 15.8459 87.0239 15.9686C87.3376 16.0914 87.6196 16.2832 87.8491 16.5298C88.0786 16.7764 88.2496 17.0715 88.3496 17.3932C88.4495 17.7148 88.4758 18.0549 88.4265 18.3881V22.8571H87.0641V18.7302C87.0641 17.6208 86.582 17.0691 85.5744 17.0691C85.3464 17.0585 85.1187 17.0973 84.907 17.1829C84.6954 17.2685 84.5047 17.3988 84.3482 17.565C84.1916 17.7312 84.0728 17.9292 83.9999 18.1456C83.9271 18.362 83.9019 18.5915 83.926 18.8186V22.8572H82.5636L82.5636 15.9537Z" fill="white"/>
  <path d="M90.5975 13.2588H91.9599V22.8572H90.5975V13.2588Z" fill="white"/>
  <path d="M93.8538 19.4025C93.8104 18.9488 93.8624 18.491 94.0063 18.0586C94.1502 17.6261 94.3829 17.2285 94.6894 16.8912C94.996 16.5539 95.3697 16.2845 95.7865 16.1001C96.2033 15.9157 96.654 15.8204 97.1098 15.8204C97.5656 15.8204 98.0163 15.9157 98.4331 16.1001C98.8499 16.2845 99.2236 16.5539 99.5302 16.8912C99.8367 17.2285 100.069 17.6261 100.213 18.0586C100.357 18.491 100.409 18.9488 100.366 19.4025C100.41 19.8566 100.359 20.315 100.215 20.7482C100.072 21.1813 99.839 21.5796 99.5323 21.9175C99.2257 22.2554 98.8518 22.5255 98.4346 22.7102C98.0173 22.895 97.5661 22.9905 97.1098 22.9905C96.6535 22.9905 96.2022 22.895 95.785 22.7102C95.3678 22.5255 94.9939 22.2554 94.6872 21.9175C94.3806 21.5796 94.148 21.1813 94.0045 20.7482C93.861 20.315 93.8096 19.8566 93.8538 19.4025ZM98.9637 19.4025C98.9637 17.9061 98.2914 17.031 97.1117 17.031C95.9274 17.031 95.2612 17.9061 95.2612 19.4025C95.2612 20.9109 95.9274 21.7793 97.1117 21.7793C98.2914 21.7792 98.9637 20.9049 98.9637 19.4025Z" fill="white"/>
  <path d="M101.8 20.9049C101.8 19.6622 102.725 18.9458 104.368 18.844L106.238 18.7362V18.1404C106.238 17.4112 105.756 16.9995 104.824 16.9995C104.064 16.9995 103.537 17.2787 103.386 17.7668H102.067C102.206 16.5811 103.321 15.8205 104.887 15.8205C106.618 15.8205 107.594 16.6821 107.594 18.1404V22.8572H106.283V21.8871H106.175C105.956 22.2351 105.649 22.5188 105.284 22.7092C104.92 22.8996 104.512 22.9899 104.101 22.971C103.811 23.0011 103.519 22.9702 103.241 22.8802C102.964 22.7902 102.709 22.6431 102.492 22.4485C102.275 22.2538 102.102 22.0159 101.983 21.75C101.863 21.4842 101.801 21.1963 101.8 20.9049ZM106.238 20.315V19.7378L104.552 19.8456C103.601 19.9093 103.17 20.2327 103.17 20.8413C103.17 21.4626 103.709 21.8241 104.45 21.8241C104.667 21.8461 104.887 21.8242 105.095 21.7597C105.304 21.6951 105.497 21.5893 105.664 21.4485C105.831 21.3077 105.967 21.1348 106.066 20.9401C106.165 20.7453 106.223 20.5328 106.238 20.315Z" fill="white"/>
  <path d="M109.385 19.4025C109.385 17.2211 110.506 15.8392 112.25 15.8392C112.682 15.8193 113.11 15.9227 113.485 16.1371C113.86 16.3516 114.166 16.6684 114.367 17.0504H114.469V13.2588H115.832V22.8572H114.526V21.7665H114.418C114.201 22.1459 113.884 22.4587 113.502 22.671C113.12 22.8833 112.687 22.9871 112.25 22.971C110.494 22.971 109.385 21.5891 109.385 19.4025ZM110.792 19.4025C110.792 20.8667 111.482 21.7478 112.637 21.7478C113.785 21.7478 114.495 20.854 114.495 19.4085C114.495 17.9697 113.778 17.0631 112.637 17.0631C111.49 17.0631 110.792 17.9502 110.792 19.4025Z" fill="white"/>
  <path d="M121.468 19.4025C121.425 18.9488 121.477 18.4911 121.621 18.0586C121.765 17.6262 121.997 17.2286 122.304 16.8913C122.61 16.5541 122.984 16.2846 123.401 16.1002C123.818 15.9158 124.268 15.8206 124.724 15.8206C125.18 15.8206 125.631 15.9158 126.047 16.1002C126.464 16.2846 126.838 16.5541 127.144 16.8913C127.451 17.2286 127.683 17.6262 127.827 18.0586C127.971 18.4911 128.023 18.9488 127.98 19.4025C128.024 19.8566 127.973 20.315 127.829 20.7481C127.686 21.1813 127.453 21.5796 127.147 21.9175C126.84 22.2554 126.466 22.5255 126.049 22.7103C125.632 22.8951 125.18 22.9905 124.724 22.9905C124.268 22.9905 123.817 22.8951 123.399 22.7103C122.982 22.5255 122.608 22.2554 122.302 21.9175C121.995 21.5796 121.763 21.1813 121.619 20.7481C121.476 20.315 121.424 19.8566 121.468 19.4025ZM126.578 19.4025C126.578 17.9061 125.906 17.031 124.726 17.031C123.542 17.031 122.876 17.9061 122.876 19.4025C122.876 20.9109 123.542 21.7793 124.726 21.7793C125.906 21.7792 126.578 20.9049 126.578 19.4025Z" fill="white"/>
  <path d="M129.808 15.9537H131.119V17.0504H131.221C131.394 16.6565 131.685 16.3263 132.054 16.1059C132.424 15.8854 132.853 15.7856 133.281 15.8205C133.617 15.7952 133.954 15.8459 134.268 15.9686C134.582 16.0914 134.864 16.2832 135.093 16.5298C135.323 16.7764 135.494 17.0715 135.594 17.3932C135.694 17.7148 135.72 18.0549 135.671 18.3881V22.8571H134.308V18.7302C134.308 17.6208 133.826 17.0691 132.819 17.0691C132.591 17.0585 132.363 17.0973 132.151 17.1829C131.94 17.2685 131.749 17.3988 131.592 17.565C131.436 17.7312 131.317 17.9292 131.244 18.1456C131.171 18.362 131.146 18.5915 131.17 18.8186V22.8572H129.808V15.9537Z" fill="white"/>
  <path d="M143.369 14.235V15.9852H144.865V17.1328H143.369V20.6826C143.369 21.4057 143.667 21.7223 144.345 21.7223C144.519 21.7218 144.692 21.7113 144.865 21.6909V22.8258C144.62 22.8695 144.372 22.8928 144.124 22.8954C142.609 22.8954 142.005 22.3624 142.005 21.0314V17.1327H140.909V15.9851H142.005V14.235H143.369Z" fill="white"/>
  <path d="M146.726 13.2588H148.076V17.0631H148.184C148.365 16.6656 148.665 16.3335 149.041 16.1122C149.418 15.8909 149.854 15.7911 150.289 15.8265C150.623 15.8083 150.957 15.8641 151.267 15.9898C151.578 16.1156 151.856 16.3083 152.083 16.5541C152.31 16.7999 152.48 17.0928 152.581 17.4119C152.682 17.731 152.711 18.0684 152.667 18.4001V22.8572H151.303V18.7362C151.303 17.6335 150.789 17.0751 149.827 17.0751C149.592 17.0559 149.357 17.0881 149.136 17.1694C148.916 17.2507 148.716 17.3793 148.55 17.546C148.385 17.7127 148.258 17.9135 148.178 18.1345C148.098 18.3555 148.068 18.5912 148.088 18.8253V22.8572H146.726L146.726 13.2588Z" fill="white"/>
  <path d="M160.611 20.9932C160.426 21.6242 160.025 22.1699 159.478 22.535C158.931 22.9001 158.273 23.0613 157.619 22.9904C157.165 23.0025 156.713 22.9153 156.295 22.7352C155.877 22.555 155.503 22.286 155.2 21.947C154.897 21.608 154.671 21.207 154.538 20.7719C154.405 20.3367 154.368 19.8779 154.43 19.4272C154.37 18.9751 154.407 18.5153 154.54 18.0788C154.672 17.6424 154.897 17.2395 155.199 16.8975C155.501 16.5555 155.872 16.2824 156.289 16.0966C156.706 15.9107 157.157 15.8166 157.613 15.8205C159.534 15.8205 160.693 17.1328 160.693 19.3006V19.776H155.818V19.8524C155.797 20.1057 155.829 20.3607 155.912 20.601C155.995 20.8414 156.127 21.0617 156.3 21.2479C156.473 21.4341 156.683 21.5821 156.917 21.6823C157.151 21.7826 157.403 21.8329 157.657 21.8301C157.983 21.8692 158.313 21.8105 158.605 21.6615C158.898 21.5125 159.139 21.2798 159.299 20.9932L160.611 20.9932ZM155.818 18.7684H159.305C159.322 18.5367 159.291 18.304 159.213 18.0852C159.135 17.8664 159.012 17.6663 158.852 17.4979C158.691 17.3295 158.498 17.1964 158.283 17.1072C158.069 17.018 157.838 16.9747 157.606 16.98C157.37 16.9771 157.136 17.0213 156.918 17.1102C156.7 17.199 156.502 17.3306 156.335 17.4973C156.168 17.664 156.037 17.8623 155.948 18.0806C155.859 18.2989 155.815 18.5328 155.818 18.7684Z" fill="white"/>
</svg>