<svg xmlns="http://www.w3.org/2000/svg" width="207" height="62" viewBox="0 0 207 62" fill="none">
  <rect x="0.0302734" width="206.97" height="61.3244" rx="12.2649" fill="black"/>
  <path d="M104.492 33.3482C100.886 33.3482 97.9467 36.0894 97.9467 39.8686C97.9467 43.6231 100.886 46.3889 104.492 46.3889C108.097 46.3889 111.036 43.6231 111.036 39.8686C111.036 36.0894 108.097 33.3482 104.492 33.3482ZM104.492 43.8209C102.515 43.8209 100.811 42.1912 100.811 39.8686C100.811 37.5214 102.515 35.9162 104.492 35.9162C106.468 35.9162 108.171 37.5214 108.171 39.8686C108.171 42.1897 106.468 43.8209 104.492 43.8209ZM90.2122 33.3482C86.6063 33.3482 83.6674 36.0894 83.6674 39.8686C83.6674 43.6231 86.6063 46.3889 90.2122 46.3889C93.8181 46.3889 96.7571 43.6231 96.7571 39.8686C96.7586 36.0894 93.8181 33.3482 90.2122 33.3482ZM90.2122 43.8209C88.236 43.8209 86.5328 42.1912 86.5328 39.8686C86.5328 37.5214 88.2376 35.9162 90.2122 35.9162C92.1884 35.9162 93.8917 37.5214 93.8917 39.8686C93.8932 42.1897 92.1884 43.8209 90.2122 43.8209ZM73.2284 38.1147H79.8484C79.6506 39.6708 79.1324 40.8068 78.3413 41.5979C77.3785 42.5607 75.8715 43.6231 73.2284 43.6231C69.1534 43.6231 65.9676 40.3377 65.9676 36.2627C65.9676 32.1877 69.1534 28.9022 73.2284 28.9022C75.4269 28.9022 77.0321 29.7669 78.2172 30.8784L80.1688 28.9268C78.5146 27.3461 76.3161 26.135 73.2284 26.135C67.6464 26.135 62.9535 30.6791 62.9535 36.2611C62.9535 41.8432 67.6464 46.3873 73.2284 46.3873C76.241 46.3873 78.5146 45.4 80.293 43.5465C82.1205 41.719 82.6892 39.1495 82.6892 37.0752C82.6892 36.4329 82.6402 35.8395 82.5405 35.3459H73.2284V38.1147ZM142.691 37.4968C142.148 36.0388 140.492 33.3467 137.108 33.3467C133.749 33.3467 130.959 35.9898 130.959 39.867C130.959 43.522 133.725 46.3873 137.43 46.3873C140.418 46.3873 142.148 44.5599 142.864 43.4974L140.641 42.0149C139.9 43.1019 138.887 43.8178 137.43 43.8178C135.972 43.8178 134.936 43.1509 134.269 41.8417L142.988 38.2358L142.691 37.4968ZM133.799 39.6708C133.725 37.1519 135.75 35.8671 137.207 35.8671C138.343 35.8671 139.305 36.4344 139.627 37.25L133.799 39.6708ZM126.709 45.9933H129.575V26.8279H126.709V45.9933ZM122.017 34.8047H121.918C121.276 34.0397 120.042 33.3467 118.486 33.3467C115.225 33.3467 112.237 36.2121 112.237 39.8916C112.237 43.5465 115.225 46.3873 118.486 46.3873C120.042 46.3873 121.276 45.6959 121.918 44.9048H122.017V45.8431C122.017 48.3374 120.683 49.6713 118.533 49.6713C116.779 49.6713 115.692 48.411 115.248 47.3501L112.754 48.388C113.469 50.1174 115.372 52.2407 118.533 52.2407C121.892 52.2407 124.733 50.2646 124.733 45.4491V33.7422H122.017V34.8047ZM118.733 43.8209C116.756 43.8209 115.102 42.1667 115.102 39.8931C115.102 37.5965 116.756 35.9162 118.733 35.9162C120.684 35.9162 122.214 37.595 122.214 39.8931C122.214 42.1651 120.684 43.8209 118.733 43.8209ZM156.111 26.8279H149.257V45.9933H152.116V38.7325H156.11C159.28 38.7325 162.397 36.4375 162.397 32.781C162.397 29.1245 159.282 26.8279 156.111 26.8279ZM156.185 36.0649H152.116V29.4955H156.185C158.324 29.4955 159.538 31.2663 159.538 32.781C159.538 34.265 158.324 36.0649 156.185 36.0649ZM173.865 33.313C171.794 33.313 169.649 34.2252 168.761 36.2473L171.301 37.3083C171.844 36.2473 172.854 35.9024 173.915 35.9024C175.395 35.9024 176.899 36.7901 176.923 38.3676V38.5654C176.405 38.2695 175.295 37.8249 173.94 37.8249C171.203 37.8249 168.416 39.3289 168.416 42.1406C168.416 44.7055 170.661 46.3567 173.175 46.3567C175.099 46.3567 176.158 45.4935 176.824 44.4832H176.922V45.9627H179.683V38.6145C179.683 35.211 177.144 33.313 173.865 33.313ZM173.518 43.8163C172.582 43.8163 171.274 43.3472 171.274 42.1897C171.274 40.7102 172.902 40.143 174.306 40.143C175.563 40.143 176.155 40.4143 176.92 40.7838C176.7 42.5592 175.171 43.8163 173.518 43.8163ZM189.743 33.7315L186.464 42.041H186.366L182.964 33.7315H179.882L184.986 45.3448L182.076 51.8053H185.06L192.926 33.7315H189.743ZM163.976 45.9933H166.837V26.8279H163.976V45.9933Z" fill="white"/>
  <path d="M72.6627 15.0107H68.2044V16.1161H71.5451C71.4546 17.0145 71.0943 17.7213 70.4918 18.2348C69.8878 18.7484 69.1166 19.006 68.2044 19.006C67.2018 19.006 66.354 18.6595 65.661 17.965C64.9803 17.2583 64.6323 16.3859 64.6323 15.3311C64.6323 14.2779 64.9803 13.404 65.661 12.6972C66.354 12.0043 67.2018 11.6578 68.2044 11.6578C68.718 11.6578 69.2071 11.7467 69.6563 11.9399C70.1055 12.1331 70.4658 12.4029 70.7478 12.7494L71.5957 11.9016C71.2108 11.4646 70.7218 11.1304 70.1193 10.8866C69.5152 10.6429 68.8851 10.5264 68.2044 10.5264C66.8675 10.5264 65.7376 10.9894 64.8132 11.9138C63.8872 12.8398 63.4257 13.982 63.4257 15.3311C63.4257 16.6803 63.8872 17.824 64.8132 18.7484C65.7376 19.6744 66.8675 20.1359 68.2044 20.1359C69.6041 20.1359 70.7218 19.6867 71.5834 18.7745C72.3408 18.0171 72.7271 16.9884 72.7271 15.7037C72.7271 15.486 72.701 15.2545 72.6627 15.0107Z" fill="white"/>
  <path d="M74.4228 10.7318V19.9305H79.7933V18.8006H75.6048V15.8846H79.3808V14.7792H75.6048V11.8632H79.7933V10.7318H74.4228Z" fill="white"/>
  <path d="M87.3453 11.8632V10.7318H81.0243V11.8632H83.5938V19.9305H84.7758V11.8632H87.3453Z" fill="white"/>
  <path d="M93.102 10.7318H91.92V19.9305H93.102V10.7318Z" fill="white"/>
  <path d="M100.913 11.8632V10.7318H94.5923V11.8632H97.1618V19.9305H98.3438V11.8632H100.913Z" fill="white"/>
  <path d="M112.875 11.9276C111.962 10.9894 110.845 10.5264 109.508 10.5264C108.173 10.5264 107.053 10.9894 106.141 11.9138C105.229 12.826 104.78 13.9697 104.78 15.3311C104.78 16.6941 105.229 17.8362 106.141 18.7484C107.053 19.6744 108.173 20.1359 109.508 20.1359C110.831 20.1359 111.962 19.6744 112.875 18.7484C113.787 17.8362 114.236 16.6941 114.236 15.3311C114.236 13.982 113.787 12.8398 112.875 11.9276ZM106.991 12.6972C107.671 12.0043 108.505 11.6578 109.508 11.6578C110.511 11.6578 111.345 12.0043 112.013 12.6972C112.694 13.3795 113.028 14.2656 113.028 15.3311C113.028 16.3982 112.694 17.2843 112.013 17.965C111.345 18.6595 110.511 19.006 109.508 19.006C108.505 19.006 107.671 18.6595 106.991 17.965C106.322 17.272 105.988 16.3982 105.988 15.3311C105.988 14.2656 106.322 13.3917 106.991 12.6972Z" fill="white"/>
  <path d="M117.075 14.2012L117.025 12.4274H117.075L121.753 19.9305H122.985V10.7318H121.803V16.1161L121.856 17.8884H121.803L117.333 10.7318H115.895V19.9305H117.075V14.2012Z" fill="white"/>
  <path d="M31.7921 29.7797L15.4691 47.1038C15.4706 47.1069 15.4706 47.11 15.4721 47.113C15.9719 48.9957 17.6905 50.3801 19.7296 50.3801C20.5452 50.3801 21.3102 50.1593 21.9664 49.773L22.0185 49.7423L40.3913 39.1409L31.7921 29.7797Z" fill="#EB4335"/>
  <path d="M48.3071 26.8301L48.2918 26.8194L40.3595 22.2201L31.423 30.1723L40.3901 39.1379L48.281 34.5861C49.6639 33.8395 50.6022 32.3815 50.6022 30.6997C50.6022 29.0301 49.6762 27.5783 48.3071 26.8301Z" fill="#FABC13"/>
  <path d="M15.4696 14.2233C15.3715 14.5851 15.3193 14.9638 15.3193 15.3578V45.9694C15.3193 46.3634 15.3694 46.7436 15.4691 47.1038L32.3537 30.2228L15.4696 14.2233Z" fill="#547DBF"/>
  <path d="M31.9117 30.6629L40.3606 22.217L22.0078 11.5772C21.3409 11.177 20.5636 10.9471 19.7296 10.9471C17.6905 10.9471 15.9704 12.3345 15.4691 14.2187L15.4696 14.2233L31.9117 30.6629Z" fill="#30A851"/>
</svg>